{
  "accessors": [
    {
      "bufferView": 2,
      "componentType": 5126,
      "count": 10758,
      "max": [
        21.18366050720215,
        1.052150011062622,
        -4.05456018447876
      ],
      "min": [
        1.0794099569320679,
        -1.052150011062622,
        -6.975249767303467
      ],
      "type": "VEC3"
    },
    {
      "bufferView": 2,
      "byteOffset": 129096,
      "componentType": 5126,
      "count": 10758,
      "max": [
        1.0,
        1.0,
        1.0
      ],
      "min": [
        -1.0,
        -1.0,
        -0.9999999403953552
      ],
      "type": "VEC3"
    },
    {
      "bufferView": 1,
      "componentType": 5126,
      "count": 10758,
      "max": [
        1.091670036315918,
        2.9561800956726074
      ],
      "min": [
        -0.39274999499320984,
        -2.9321200847625732
      ],
      "type": "VEC2"
    },
    {
      "bufferView": 1,
      "byteOffset": 86064,
      "componentType": 5126,
      "count": 10758,
      "max": [
        1.091670036315918,
        2.9561800956726074
      ],
      "min": [
        -0.39274999499320984,
        -2.9321200847625732
      ],
      "type": "VEC2"
    },
    {
      "bufferView": 1,
      "byteOffset": 172128,
      "componentType": 5126,
      "count": 10758,
      "max": [
        1.091670036315918,
        2.9561800956726074
      ],
      "min": [
        -0.39274999499320984,
        -2.9321200847625732
      ],
      "type": "VEC2"
    },
    {
      "bufferView": 0,
      "componentType": 5125,
      "count": 47424,
      "type": "SCALAR"
    }
  ],
  "asset": {
    "extras": {
      "author": "IProZenoN (https://sketchfab.com/IProZenoN)",
      "license": "CC-BY-4.0 (http://creativecommons.org/licenses/by/4.0/)",
      "source": "https://sketchfab.com/3d-models/old-bridge-886efeb526374777b6b6d4e8fb1ebfdb",
      "title": "Old Bridge"
    },
    "generator": "Sketchfab-12.65.0",
    "version": "2.0"
  },
  "bufferViews": [
    {
      "buffer": 0,
      "byteLength": 189696,
      "name": "floatBufferViews",
      "target": 34963
    },
    {
      "buffer": 0,
      "byteLength": 258192,
      "byteOffset": 189696,
      "byteStride": 8,
      "name": "floatBufferViews",
      "target": 34962
    },
    {
      "buffer": 0,
      "byteLength": 258192,
      "byteOffset": 447888,
      "byteStride": 12,
      "name": "floatBufferViews",
      "target": 34962
    }
  ],
  "buffers": [
    {
      "byteLength": 706080,
      "uri": "scene.bin"
    }
  ],
  "images": [
    {
      "uri": "textures/Material_baseColor.jpeg"
    },
    {
      "uri": "textures/Material_metallicRoughness.png"
    }
  ],
  "materials": [
    {
      "doubleSided": true,
      "name": "Material",
      "pbrMetallicRoughness": {
        "baseColorTexture": {
          "index": 0
        },
        "metallicRoughnessTexture": {
          "index": 1
        },
        "roughnessFactor": 0.6
      }
    }
  ],
  "meshes": [
    {
      "name": "Cube.001_0",
      "primitives": [
        {
          "attributes": {
            "NORMAL": 1,
            "POSITION": 0,
            "TEXCOORD_0": 2,
            "TEXCOORD_1": 3,
            "TEXCOORD_2": 4
          },
          "indices": 5,
          "material": 0,
          "mode": 4
        }
      ]
    }
  ],
  "nodes": [
    {
      "children": [
        1
      ],
      "matrix": [
        1.0,
        0.0,
        0.0,
        0.0,
        0.0,
        2.220446049250313e-16,
        -1.0,
        0.0,
        0.0,
        1.0,
        2.220446049250313e-16,
        0.0,
        0.0,
        0.0,
        0.0,
        1.0
      ],
      "name": "Sketchfab_model"
    },
    {
      "children": [
        2,
        4
      ],
      "name": "Root"
    },
    {
      "children": [
        3
      ],
      "matrix": [
        -0.29086000000000006,
        0.9551700000000001,
        -0.05519000000000001,
        0.0,
        -0.7711,
        -0.19988000000000003,
        0.6045200000000001,
        0.0,
        0.5663900000000001,
        0.21839000000000003,
        0.7946700000000001,
        0.0,
        4.076250000000001,
        1.00545,
        5.903860000000001,
        1.0
      ],
      "name": "Lamp"
    },
    {
      "name": "Lamp"
    },
    {
      "children": [
        5
      ],
      "matrix": [
        0.6192900000000001,
        0.0,
        0.0,
        0.0,
        0.0,
        0.9249,
        0.0,
        0.0,
        0.0,
        0.0,
        0.6192900000000001,
        0.0,
        -6.908440000000001,
        0.0,
        4.1240999999999985,
        1.0
      ],
      "name": "Cube.001"
    },
    {
      "mesh": 0,
      "name": "Cube.001_0"
    }
  ],
  "samplers": [
    {
      "magFilter": 9729,
      "minFilter": 9987,
      "wrapS": 10497,
      "wrapT": 10497
    }
  ],
  "scene": 0,
  "scenes": [
    {
      "name": "Sketchfab_Scene",
      "nodes": [
        0
      ]
    }
  ],
  "textures": [
    {
      "sampler": 0,
      "source": 0
    },
    {
      "sampler": 0,
      "source": 1
    }
  ]
}
