{
    "asset" : {
        "generator" : "Khronos glTF Blender I/O v3.2.40",
        "version" : "2.0"
    },
    "scene" : 0,
    "scenes" : [
        {
            "name" : "Scene",
            "nodes" : [
                6
            ]
        }
    ],
    "nodes" : [
        {
            "mesh" : 0,
            "name" : "Object_6",
            "translation" : [
                0,
                7.62939453125e-06,
                0
            ]
        },
        {
            "children" : [
                0
            ],
            "name" : "Windturbine Blades_1",
            "scale" : [
                0.40057528018951416,
                0.40057528018951416,
                0.471651166677475
            ],
            "translation" : [
                0,
                13.161629676818848,
                0.563713550567627
            ]
        },
        {
            "mesh" : 1,
            "name" : "Object_4"
        },
        {
            "children" : [
                2
            ],
            "name" : "Windturbine Support_0",
            "scale" : [
                0.40057528018951416,
                0.40057528018951416,
                0.471651166677475
            ]
        },
        {
            "children" : [
                1,
                3
            ],
            "name" : "GLTF_SceneRootNode",
            "rotation" : [
                0.7071068286895752,
                0,
                0,
                0.7071067094802856
            ]
        },
        {
            "children" : [
                4
            ],
            "name" : "root"
        },
        {
            "children" : [
                5
            ],
            "name" : "Sketchfab_model",
            "rotation" : [
                -0.7071068286895752,
                0,
                0,
                0.7071067094802856
            ]
        }
    ],
    "materials" : [
        {
            "doubleSided" : true,
            "name" : "Windmill",
            "pbrMetallicRoughness" : {
                "baseColorTexture" : {
                    "index" : 0
                },
                "metallicFactor" : 0.3901081681251526,
                "roughnessFactor" : 0.5
            }
        }
    ],
    "meshes" : [
        {
            "name" : "Object_1",
            "primitives" : [
                {
                    "attributes" : {
                        "POSITION" : 0,
                        "NORMAL" : 1,
                        "TEXCOORD_0" : 2
                    },
                    "indices" : 3,
                    "material" : 0
                }
            ]
        },
        {
            "name" : "Object_0",
            "primitives" : [
                {
                    "attributes" : {
                        "POSITION" : 4,
                        "NORMAL" : 5,
                        "TEXCOORD_0" : 6
                    },
                    "indices" : 7,
                    "material" : 0
                }
            ]
        }
    ],
    "textures" : [
        {
            "sampler" : 0,
            "source" : 0
        }
    ],
    "images" : [
        {
            "mimeType" : "image/png",
            "name" : "Windmill_baseColor",
            "uri" : "Windmill_baseColor.png"
        }
    ],
    "accessors" : [
        {
            "bufferView" : 0,
            "componentType" : 5126,
            "count" : 1126,
            "max" : [
                14.652009963989258,
                16.841712951660156,
                2.2366676330566406
            ],
            "min" : [
                -14.542757034301758,
                -8.621158599853516,
                -1.1920928955078125e-07
            ],
            "type" : "VEC3"
        },
        {
            "bufferView" : 1,
            "componentType" : 5126,
            "count" : 1126,
            "type" : "VEC3"
        },
        {
            "bufferView" : 2,
            "componentType" : 5126,
            "count" : 1126,
            "type" : "VEC2"
        },
        {
            "bufferView" : 3,
            "componentType" : 5123,
            "count" : 4056,
            "type" : "SCALAR"
        },
        {
            "bufferView" : 4,
            "componentType" : 5126,
            "count" : 189,
            "max" : [
                1.170703649520874,
                33.85681915283203,
                1.4206569194793701
            ],
            "min" : [
                -1.170703649520874,
                0,
                -1.0910956859588623
            ],
            "type" : "VEC3"
        },
        {
            "bufferView" : 5,
            "componentType" : 5126,
            "count" : 189,
            "type" : "VEC3"
        },
        {
            "bufferView" : 6,
            "componentType" : 5126,
            "count" : 189,
            "type" : "VEC2"
        },
        {
            "bufferView" : 7,
            "componentType" : 5123,
            "count" : 384,
            "type" : "SCALAR"
        }
    ],
    "bufferViews" : [
        {
            "buffer" : 0,
            "byteLength" : 13512,
            "byteOffset" : 0
        },
        {
            "buffer" : 0,
            "byteLength" : 13512,
            "byteOffset" : 13512
        },
        {
            "buffer" : 0,
            "byteLength" : 9008,
            "byteOffset" : 27024
        },
        {
            "buffer" : 0,
            "byteLength" : 8112,
            "byteOffset" : 36032
        },
        {
            "buffer" : 0,
            "byteLength" : 2268,
            "byteOffset" : 44144
        },
        {
            "buffer" : 0,
            "byteLength" : 2268,
            "byteOffset" : 46412
        },
        {
            "buffer" : 0,
            "byteLength" : 1512,
            "byteOffset" : 48680
        },
        {
            "buffer" : 0,
            "byteLength" : 768,
            "byteOffset" : 50192
        }
    ],
    "samplers" : [
        {
            "magFilter" : 9729,
            "minFilter" : 9987
        }
    ],
    "buffers" : [
        {
            "byteLength" : 50960,
            "uri" : "scene.bin"
        }
    ]
}
