{
  "accessors": [
    {
      "bufferView": 2,
      "componentType": 5126,
      "count": 26887,
      "max": [
        76.35623931884766,
        -132.42813110351563,
        76.40530395507813
      ],
      "min": [
        -76.89241790771484,
        -453.0392150878906,
        -77.19280242919922
      ],
      "type": "VEC3"
    },
    {
      "bufferView": 2,
      "byteOffset": 322644,
      "componentType": 5126,
      "count": 26887,
      "max": [
        0.999997615814209,
        0.9999999403953552,
        0.9999976754188538
      ],
      "min": [
        -0.9999999403953552,
        -1.0,
        -0.9999996423721313
      ],
      "type": "VEC3"
    },
    {
      "bufferView": 3,
      "componentType": 5126,
      "count": 26887,
      "max": [
        0.9999997615814209,
        0.9999947547912598,
        0.9981986284255981,
        1.0
      ],
      "min": [
        -0.9996705055236816,
        -1.0,
        -0.9968539476394653,
        1.0
      ],
      "type": "VEC4"
    },
    {
      "bufferView": 1,
      "componentType": 5126,
      "count": 26887,
      "max": [
        0.9999979734420776,
        0.9741700291633606
      ],
      "min": [
        1.9999999949504854e-06,
        0.00031900001340545714
      ],
      "type": "VEC2"
    },
    {
      "bufferView": 0,
      "componentType": 5125,
      "count": 156204,
      "type": "SCALAR"
    }
  ],
  "asset": {
    "extras": {
      "author": "Cultural Heritage Administration (https://sketchfab.com/CHA_Asset)",
      "license": "CC-BY-4.0 (http://creativecommons.org/licenses/by/4.0/)",
      "source": "https://sketchfab.com/3d-models/rain-gauge-of-imunwon-hall-6a27522c7af64a9ab443165e22e08d64",
      "title": "Rain Gauge of Imunwon hall"
    },
    "generator": "Sketchfab-15.13.0",
    "version": "2.0"
  },
  "bufferViews": [
    {
      "buffer": 0,
      "byteLength": 624816,
      "name": "floatBufferViews",
      "target": 34963
    },
    {
      "buffer": 0,
      "byteLength": 215096,
      "byteOffset": 624816,
      "byteStride": 8,
      "name": "floatBufferViews",
      "target": 34962
    },
    {
      "buffer": 0,
      "byteLength": 645288,
      "byteOffset": 839912,
      "byteStride": 12,
      "name": "floatBufferViews",
      "target": 34962
    },
    {
      "buffer": 0,
      "byteLength": 430192,
      "byteOffset": 1485200,
      "byteStride": 16,
      "name": "floatBufferViews",
      "target": 34962
    }
  ],
  "buffers": [
    {
      "byteLength": 1915392,
      "uri": "scene.bin"
    }
  ],
  "extensionsUsed": [
    "KHR_materials_specular"
  ],
  "images": [
    {
      "uri": "textures/Solid_baseColor.jpeg"
    },
    {
      "uri": "textures/Solid_metallicRoughness.png"
    },
    {
      "uri": "textures/Solid_normal.png"
    },
    {
      "uri": "textures/Solid_specularf0.png"
    }
  ],
  "materials": [
    {
      "doubleSided": true,
      "extensions": {
        "KHR_materials_specular": {
          "specularColorFactor": [
            1.0,
            1.0,
            1.0
          ],
          "specularFactor": 1.0,
          "specularTexture": {
            "index": 3
          }
        }
      },
      "name": "Solid",
      "normalTexture": {
        "index": 2
      },
      "occlusionTexture": {
        "index": 1
      },
      "pbrMetallicRoughness": {
        "baseColorTexture": {
          "index": 0
        },
        "metallicRoughnessTexture": {
          "index": 1
        }
      }
    }
  ],
  "meshes": [
    {
      "name": "Object_0",
      "primitives": [
        {
          "attributes": {
            "NORMAL": 1,
            "POSITION": 0,
            "TANGENT": 2,
            "TEXCOORD_0": 3
          },
          "indices": 4,
          "material": 0,
          "mode": 4
        }
      ]
    }
  ],
  "nodes": [
    {
      "children": [
        1
      ],
      "matrix": [
        1.0,
        0.0,
        0.0,
        0.0,
        0.0,
        2.220446049250313e-16,
        -1.0,
        0.0,
        0.0,
        1.0,
        2.220446049250313e-16,
        0.0,
        0.0,
        0.0,
        0.0,
        1.0
      ],
      "name": "Sketchfab_model"
    },
    {
      "children": [
        2
      ],
      "name": "Rain Gauge Pedestal of Imunwon hall_Asset_001.obj.cleaner.materialmerger.gles"
    },
    {
      "mesh": 0,
      "name": "Object_2"
    }
  ],
  "samplers": [
    {
      "magFilter": 9729,
      "minFilter": 9987,
      "wrapS": 10497,
      "wrapT": 10497
    }
  ],
  "scene": 0,
  "scenes": [
    {
      "name": "Sketchfab_Scene",
      "nodes": [
        0
      ]
    }
  ],
  "textures": [
    {
      "sampler": 0,
      "source": 0
    },
    {
      "sampler": 0,
      "source": 1
    },
    {
      "sampler": 0,
      "source": 2
    },
    {
      "sampler": 0,
      "source": 3
    }
  ]
}
