{
  "accessors": [
    {
      "bufferView": 2,
      "componentType": 5126,
      "count": 24,
      "max": [
        93.3311996459961,
        26.057100296020508,
        161.30690002441406
      ],
      "min": [
        -305.4189147949219,
        -1.3741999864578247,
        -247.03750610351563
      ],
      "type": "VEC3"
    },
    {
      "bufferView": 2,
      "byteOffset": 288,
      "componentType": 5126,
      "count": 24,
      "max": [
        1.0,
        1.0,
        1.0
      ],
      "min": [
        -1.0,
        -1.0,
        -1.0
      ],
      "type": "VEC3"
    },
    {
      "bufferView": 1,
      "componentType": 5126,
      "count": 24,
      "max": [
        1.0,
        1.0
      ],
      "min": [
        0.0,
        0.0
      ],
      "type": "VEC2"
    },
    {
      "bufferView": 0,
      "componentType": 5125,
      "count": 36,
      "type": "SCALAR"
    },
    {
      "bufferView": 2,
      "byteOffset": 576,
      "componentType": 5126,
      "count": 4688,
      "max": [
        62.221500396728516,
        -1.1181000471115112,
        140.8227996826172
      ],
      "min": [
        -225.54849243164063,
        -61.055301666259766,
        -224.158203125
      ],
      "type": "VEC3"
    },
    {
      "bufferView": 2,
      "byteOffset": 56832,
      "componentType": 5126,
      "count": 4688,
      "max": [
        1.0,
        1.0,
        1.0
      ],
      "min": [
        -1.0,
        -1.0,
        -1.0
      ],
      "type": "VEC3"
    },
    {
      "bufferView": 1,
      "byteOffset": 192,
      "componentType": 5126,
      "count": 4688,
      "max": [
        0.9419999718666077,
        0.991100013256073
      ],
      "min": [
        0.016200000420212746,
        0.21480000019073486
      ],
      "type": "VEC2"
    },
    {
      "bufferView": 0,
      "byteOffset": 144,
      "componentType": 5125,
      "count": 7374,
      "type": "SCALAR"
    },
    {
      "bufferView": 2,
      "byteOffset": 113088,
      "componentType": 5126,
      "count": 3673,
      "max": [
        64.29730224609375,
        10.263999938964844,
        148.5323028564453
      ],
      "min": [
        -235.91270446777344,
        -68.19229888916016,
        -228.3719940185547
      ],
      "type": "VEC3"
    },
    {
      "bufferView": 2,
      "byteOffset": 157164,
      "componentType": 5126,
      "count": 3673,
      "max": [
        1.0,
        1.0,
        1.0
      ],
      "min": [
        -1.0,
        -1.0,
        -1.0
      ],
      "type": "VEC3"
    },
    {
      "bufferView": 1,
      "byteOffset": 37696,
      "componentType": 5126,
      "count": 3673,
      "max": [
        0.9787999987602234,
        0.9821000099182129
      ],
      "min": [
        0.016200000420212746,
        0.017899999395012856
      ],
      "type": "VEC2"
    },
    {
      "bufferView": 0,
      "byteOffset": 29640,
      "componentType": 5125,
      "count": 7512,
      "type": "SCALAR"
    },
    {
      "bufferView": 2,
      "byteOffset": 201240,
      "componentType": 5126,
      "count": 4122,
      "max": [
        59.30540084838867,
        -0.6359000205993652,
        144.4127960205078
      ],
      "min": [
        -225.54849243164063,
        -66.78679656982422,
        -223.16090393066406
      ],
      "type": "VEC3"
    },
    {
      "bufferView": 2,
      "byteOffset": 250704,
      "componentType": 5126,
      "count": 4122,
      "max": [
        1.0,
        1.0,
        1.0
      ],
      "min": [
        -1.0,
        -1.0,
        -1.0
      ],
      "type": "VEC3"
    },
    {
      "bufferView": 1,
      "byteOffset": 67080,
      "componentType": 5126,
      "count": 4122,
      "max": [
        0.9674000144004822,
        0.9921000003814697
      ],
      "min": [
        0.016200000420212746,
        0.016100000590085983
      ],
      "type": "VEC2"
    },
    {
      "bufferView": 0,
      "byteOffset": 59688,
      "componentType": 5125,
      "count": 12351,
      "type": "SCALAR"
    },
    {
      "bufferView": 2,
      "byteOffset": 300168,
      "componentType": 5126,
      "count": 5318,
      "max": [
        64.29730224609375,
        10.263999938964844,
        149.75360107421875
      ],
      "min": [
        -237.11740112304688,
        -82.6886978149414,
        -229.59129333496094
      ],
      "type": "VEC3"
    },
    {
      "bufferView": 2,
      "byteOffset": 363984,
      "componentType": 5126,
      "count": 5318,
      "max": [
        1.0,
        1.0,
        1.0
      ],
      "min": [
        -1.0,
        -1.0,
        -1.0
      ],
      "type": "VEC3"
    },
    {
      "bufferView": 1,
      "byteOffset": 100056,
      "componentType": 5126,
      "count": 5318,
      "max": [
        0.9887999892234802,
        0.9965000152587891
      ],
      "min": [
        0.016200000420212746,
        0.012199999764561653
      ],
      "type": "VEC2"
    },
    {
      "bufferView": 0,
      "byteOffset": 109092,
      "componentType": 5125,
      "count": 13284,
      "type": "SCALAR"
    },
    {
      "bufferView": 2,
      "byteOffset": 427800,
      "componentType": 5126,
      "count": 7112,
      "max": [
        56.32939910888672,
        10.263999938964844,
        150.22650146484375
      ],
      "min": [
        -237.11740112304688,
        -83.87899780273438,
        -230.06619262695313
      ],
      "type": "VEC3"
    },
    {
      "bufferView": 2,
      "byteOffset": 513144,
      "componentType": 5126,
      "count": 7112,
      "max": [
        1.0,
        1.0,
        1.0
      ],
      "min": [
        -1.0,
        -1.0,
        -1.0
      ],
      "type": "VEC3"
    },
    {
      "bufferView": 1,
      "byteOffset": 142600,
      "componentType": 5126,
      "count": 7112,
      "max": [
        0.9890999794006348,
        0.989300012588501
      ],
      "min": [
        0.009999999776482582,
        0.009999999776482582
      ],
      "type": "VEC2"
    },
    {
      "bufferView": 0,
      "byteOffset": 162228,
      "componentType": 5125,
      "count": 25368,
      "type": "SCALAR"
    },
    {
      "bufferView": 2,
      "byteOffset": 598488,
      "componentType": 5126,
      "count": 3066,
      "max": [
        64.29730224609375,
        -3.981100082397461,
        150.22650146484375
      ],
      "min": [
        -237.11740112304688,
        -80.58899688720703,
        -230.06619262695313
      ],
      "type": "VEC3"
    },
    {
      "bufferView": 2,
      "byteOffset": 635280,
      "componentType": 5126,
      "count": 3066,
      "max": [
        1.0,
        1.0,
        1.0
      ],
      "min": [
        -1.0,
        -0.9998679161071777,
        -1.0
      ],
      "type": "VEC3"
    },
    {
      "bufferView": 1,
      "byteOffset": 199496,
      "componentType": 5126,
      "count": 3066,
      "max": [
        0.9887999892234802,
        0.9886999726295471
      ],
      "min": [
        0.014100000262260437,
        0.07699999958276749
      ],
      "type": "VEC2"
    },
    {
      "bufferView": 0,
      "byteOffset": 263700,
      "componentType": 5125,
      "count": 5757,
      "type": "SCALAR"
    },
    {
      "bufferView": 2,
      "byteOffset": 672072,
      "componentType": 5126,
      "count": 24,
      "max": [
        89.54650115966797,
        20.504199981689453,
        157.4311981201172
      ],
      "min": [
        -301.6343078613281,
        -6.406400203704834,
        -243.1616973876953
      ],
      "type": "VEC3"
    },
    {
      "bufferView": 2,
      "byteOffset": 672360,
      "componentType": 5126,
      "count": 24,
      "max": [
        1.0,
        1.0,
        1.0
      ],
      "min": [
        -1.0,
        -1.0,
        -1.0
      ],
      "type": "VEC3"
    },
    {
      "bufferView": 1,
      "byteOffset": 224024,
      "componentType": 5126,
      "count": 24,
      "max": [
        1.0,
        1.0
      ],
      "min": [
        0.0,
        0.0
      ],
      "type": "VEC2"
    },
    {
      "bufferView": 0,
      "byteOffset": 286728,
      "componentType": 5125,
      "count": 36,
      "type": "SCALAR"
    },
    {
      "bufferView": 2,
      "byteOffset": 672648,
      "componentType": 5126,
      "count": 351,
      "max": [
        46.88589859008789,
        -19.807600021362305,
        39.22529983520508
      ],
      "min": [
        -83.81759643554688,
        -32.066200256347656,
        -130.87030029296875
      ],
      "type": "VEC3"
    },
    {
      "bufferView": 2,
      "byteOffset": 676860,
      "componentType": 5126,
      "count": 351,
      "max": [
        0.9804275035858154,
        0.9443778395652771,
        0.9940304756164551
      ],
      "min": [
        -0.9940304756164551,
        -0.9932138323783875,
        -0.9807674884796143
      ],
      "type": "VEC3"
    },
    {
      "bufferView": 1,
      "byteOffset": 224216,
      "componentType": 5126,
      "count": 351,
      "max": [
        0.4399000108242035,
        0.7020999789237976
      ],
      "min": [
        -1.2067999839782715,
        -0.3970000147819519
      ],
      "type": "VEC2"
    },
    {
      "bufferView": 0,
      "byteOffset": 286872,
      "componentType": 5125,
      "count": 1170,
      "type": "SCALAR"
    }
  ],
  "asset": {
    "extras": {
      "author": "sebasxpm (https://sketchfab.com/sebasxpm)",
      "license": "CC-BY-4.0 (http://creativecommons.org/licenses/by/4.0/)",
      "source": "https://sketchfab.com/3d-models/ancient-greek-harbor-175183d1dee9489cba566a918981ef17",
      "title": "Ancient Greek Harbor"
    },
    "generator": "Sketchfab-12.67.0",
    "version": "2.0"
  },
  "bufferViews": [
    {
      "buffer": 0,
      "byteLength": 291552,
      "name": "floatBufferViews",
      "target": 34963
    },
    {
      "buffer": 0,
      "byteLength": 227024,
      "byteOffset": 291552,
      "byteStride": 8,
      "name": "floatBufferViews",
      "target": 34962
    },
    {
      "buffer": 0,
      "byteLength": 681072,
      "byteOffset": 518576,
      "byteStride": 12,
      "name": "floatBufferViews",
      "target": 34962
    }
  ],
  "buffers": [
    {
      "byteLength": 1199648,
      "uri": "scene.bin"
    }
  ],
  "images": [
    {
      "uri": "textures/01___Default_baseColor.jpeg"
    },
    {
      "uri": "textures/02___Default_baseColor.png"
    },
    {
      "uri": "textures/03___Default_baseColor.jpeg"
    }
  ],
  "materials": [
    {
      "doubleSided": true,
      "name": "01___Default",
      "pbrMetallicRoughness": {
        "baseColorTexture": {
          "index": 0
        },
        "metallicFactor": 0.0,
        "roughnessFactor": 0.6
      }
    },
    {
      "alphaMode": "BLEND",
      "doubleSided": true,
      "name": "02___Default",
      "pbrMetallicRoughness": {
        "baseColorTexture": {
          "index": 1
        },
        "metallicFactor": 0.6724466463,
        "roughnessFactor": 0.4773246951
      }
    },
    {
      "doubleSided": true,
      "name": "03___Default",
      "pbrMetallicRoughness": {
        "baseColorFactor": [
          0.1663490854,
          0.1663490854,
          0.1663490854,
          1.0
        ],
        "baseColorTexture": {
          "index": 2
        },
        "metallicFactor": 0.1724466463,
        "roughnessFactor": 0.1053734756
      }
    },
    {
      "doubleSided": true,
      "name": "09___Default",
      "pbrMetallicRoughness": {
        "metallicFactor": 0.0,
        "roughnessFactor": 0.6
      }
    }
  ],
  "meshes": [
    {
      "name": "Object_0",
      "primitives": [
        {
          "attributes": {
            "NORMAL": 1,
            "POSITION": 0,
            "TEXCOORD_0": 2
          },
          "indices": 3,
          "material": 0,
          "mode": 4
        }
      ]
    },
    {
      "name": "Object_1",
      "primitives": [
        {
          "attributes": {
            "NORMAL": 5,
            "POSITION": 4,
            "TEXCOORD_0": 6
          },
          "indices": 7,
          "material": 1,
          "mode": 4
        }
      ]
    },
    {
      "name": "Object_2",
      "primitives": [
        {
          "attributes": {
            "NORMAL": 9,
            "POSITION": 8,
            "TEXCOORD_0": 10
          },
          "indices": 11,
          "material": 1,
          "mode": 4
        }
      ]
    },
    {
      "name": "Object_3",
      "primitives": [
        {
          "attributes": {
            "NORMAL": 13,
            "POSITION": 12,
            "TEXCOORD_0": 14
          },
          "indices": 15,
          "material": 1,
          "mode": 4
        }
      ]
    },
    {
      "name": "Object_4",
      "primitives": [
        {
          "attributes": {
            "NORMAL": 17,
            "POSITION": 16,
            "TEXCOORD_0": 18
          },
          "indices": 19,
          "material": 1,
          "mode": 4
        }
      ]
    },
    {
      "name": "Object_5",
      "primitives": [
        {
          "attributes": {
            "NORMAL": 21,
            "POSITION": 20,
            "TEXCOORD_0": 22
          },
          "indices": 23,
          "material": 1,
          "mode": 4
        }
      ]
    },
    {
      "name": "Object_6",
      "primitives": [
        {
          "attributes": {
            "NORMAL": 25,
            "POSITION": 24,
            "TEXCOORD_0": 26
          },
          "indices": 27,
          "material": 1,
          "mode": 4
        }
      ]
    },
    {
      "name": "Object_7",
      "primitives": [
        {
          "attributes": {
            "NORMAL": 29,
            "POSITION": 28,
            "TEXCOORD_0": 30
          },
          "indices": 31,
          "material": 2,
          "mode": 4
        }
      ]
    },
    {
      "name": "Object_8",
      "primitives": [
        {
          "attributes": {
            "NORMAL": 33,
            "POSITION": 32,
            "TEXCOORD_0": 34
          },
          "indices": 35,
          "material": 3,
          "mode": 4
        }
      ]
    }
  ],
  "nodes": [
    {
      "children": [
        1
      ],
      "matrix": [
        0.0,
        -1.0,
        -2.220446049250313e-16,
        0.0,
        0.0,
        -2.220446049250313e-16,
        1.0,
        0.0,
        -1.0,
        0.0,
        0.0,
        0.0,
        -148.91006469726563,
        -148.91006469726563,
        57.821960449218714,
        1.0
      ],
      "name": "Sketchfab_model"
    },
    {
      "children": [
        2,
        3,
        4,
        5,
        6,
        7,
        8,
        9,
        10
      ],
      "name": "Final 3D 1 - Sebastian Paredes obj.obj.cleaner.materialmerger.gles"
    },
    {
      "mesh": 0,
      "name": "Object_2"
    },
    {
      "mesh": 1,
      "name": "Object_3"
    },
    {
      "mesh": 2,
      "name": "Object_4"
    },
    {
      "mesh": 3,
      "name": "Object_5"
    },
    {
      "mesh": 4,
      "name": "Object_6"
    },
    {
      "mesh": 5,
      "name": "Object_7"
    },
    {
      "mesh": 6,
      "name": "Object_8"
    },
    {
      "mesh": 7,
      "name": "Object_9"
    },
    {
      "mesh": 8,
      "name": "Object_10"
    }
  ],
  "samplers": [
    {
      "magFilter": 9729,
      "minFilter": 9987,
      "wrapS": 10497,
      "wrapT": 10497
    }
  ],
  "scene": 0,
  "scenes": [
    {
      "name": "Sketchfab_Scene",
      "nodes": [
        0
      ]
    }
  ],
  "textures": [
    {
      "sampler": 0,
      "source": 0
    },
    {
      "sampler": 0,
      "source": 1
    },
    {
      "sampler": 0,
      "source": 2
    }
  ]
}
